# xmcd
#
# Track frame offsets: 
#        150
#        15304
#        25245
#        45139
#        60387
#        74745
#        93413
#        103705
#        111351
#        125704
#        141051
#        149643
#        163366
#
# Disc length: 2422 seconds
#
# Revision: 4
# Processed by: cddbd v1.5.1PL2 Copyright (c) Steve Scherf et al.
# Submitted via: ExactAudioCopy v0.90b4
#
DISCID=ba09740d
DTITLE=Velvet Crush - Free Expression
DYEAR=1999
DGENRE=Rock
TTITLE0=Kill Me Now
TTITLE1=Worst Enemy
TTITLE2=Between The Lines
TTITLE3=Goin' To My Head
TTITLE4=Heaven Knows
TTITLE5=Roman Candle
TTITLE6=Melody #1
TTITLE7=Things Get Better
TTITLE8=Gentle Breeze
TTITLE9=All Together
TTITLE10=Shine On Me
TTITLE11=The Unlucky One
TTITLE12=Ballad of Yesteryear
EXTD=Originally Released October 26, 1999 or September 1999\n\nAMG EXP
EXTD=ERT REVIEW: Enlisting longtime friend Matthew Sweet as producer, 
EXTD=Ric Menck and Paul Chastain (both are part of Matthew Sweet's bac
EXTD=king band) rebounded greatly to produce one of Velvet Crush's mos
EXTD=t consistently engaging records with Free Expression. While it do
EXTD=esn't have any song as memorable as the hook-filled mania of 1994
EXTD='s "Hold Me Up," this release does expand considerably upon Velve
EXTD=t Crush's sound. The album as a whole is potentially their most c
EXTD=onsistent and the songs are of uniform quality, probably due to S
EXTD=weet's production. Some horns are brought in on a few tracks to c
EXTD=olor the album even more, and, as usual, there are touches of cou
EXTD=ntry strewn throughout the song cycle. Free Expression proves tha
EXTD=t Velvet Crush are one of the finer pop acts out today, and that 
EXTD=the band deserves more than merely a cult following. -- Jason Dam
EXTD=as\n\nHalf.com Details \nContributing artists: Matthew Sweet \nPr
EXTD=oducer: Matthew Sweet, Velvet Crush \n\nAlbum Notes\nVelvet Crush
EXTD=: Ric Menck, Paul Chastain.\nAdditional personnel includes: Matth
EXTD=ew Sweet (vocals, guitar) - Greg Leisz (pedal steel guitar) - David
EXTD=Gibbs (background vocals).\nRecorded in Los Angeles, California.
EXTT0=
EXTT1=
EXTT2=
EXTT3=
EXTT4=
EXTT5=
EXTT6=
EXTT7=
EXTT8=
EXTT9=
EXTT10=
EXTT11=
EXTT12=
PLAYORDER=
